HIERARCHY
ROOT Hips
{
	OFFSET -3.958830 18.904000 13.208200
	CHANNELS 6 Xposition Yposition Zposition Zrotation Yrotation Xrotation 
	JOINT LHipJoint
	{
		OFFSET 0.000000 0.000000 0.000000
		CHANNELS 3 Zrotation Yrotation Xrotation
		JOINT LeftUpLeg
		{
			OFFSET 1.800000 -1.400000 0.085000
			CHANNELS 3 Zrotation Yrotation Xrotation
			JOINT LeftLeg
			{
				OFFSET 2.215000 -6.000000 0.000000
				CHANNELS 3 Zrotation Yrotation Xrotation
				JOINT LeftFoot
				{
					OFFSET 2.500000 -6.900000 0.000000
					CHANNELS 3 Zrotation Yrotation Xrotation
					JOINT LeftToeBase
					{
						OFFSET 0.200000 -0.500000 1.950000
						CHANNELS 3 Zrotation Yrotation Xrotation
						End Site
						{
							OFFSET 0.000000 0.000000 0.000000
						}
					}
				}
			}
		}
	}
	JOINT RHipJoint
	{
		OFFSET 0.000000 0.000000 0.000000
		CHANNELS 3 Zrotation Yrotation Xrotation
		JOINT RightUpLeg
		{
			OFFSET -1.800000 -1.400000 0.085000
			CHANNELS 3 Zrotation Yrotation Xrotation
			JOINT RightLeg
			{
				OFFSET -2.215000 -6.000000 0.000000
				CHANNELS 3 Zrotation Yrotation Xrotation
				JOINT RightFoot
				{
					OFFSET -2.500000 -6.900000 0.000000
					CHANNELS 3 Zrotation Yrotation Xrotation
					JOINT RightToeBase
					{
						OFFSET -0.200000 -0.500000 1.950000
						CHANNELS 3 Zrotation Yrotation Xrotation
						End Site
						{
							OFFSET 0.000000 0.000000 0.000000
						}
					}
				}
			}
		}
	}
	JOINT LowerBack
	{
		OFFSET 0.000000 0.000000 0.000000
		CHANNELS 3 Zrotation Yrotation Xrotation
		JOINT Spine
		{
			OFFSET -0.087000 1.940000 -0.288900
			CHANNELS 3 Zrotation Yrotation Xrotation
			JOINT Spine1
			{
				OFFSET 0.000000 1.950000 0.060000
				CHANNELS 3 Zrotation Yrotation Xrotation
				JOINT Neck
				{
					OFFSET 0.000000 0.000000 0.000000
					CHANNELS 3 Zrotation Yrotation Xrotation
					JOINT Neck1
					{
						OFFSET 0.000000 1.600000 0.340000
						CHANNELS 3 Zrotation Yrotation Xrotation
						JOINT Head
						{
							OFFSET 0.000000 1.667000 -0.240000
							CHANNELS 3 Zrotation Yrotation Xrotation
							End Site
							{
								OFFSET 0.000000 0.000000 0.000000
							}
						}
					}
				}
				JOINT LeftShoulder
				{
					OFFSET 0.000000 0.000000 0.000000
					CHANNELS 3 Zrotation Yrotation Xrotation
					JOINT LeftArm
					{
						OFFSET 2.700000 1.550000 -0.730000
						CHANNELS 3 Zrotation Yrotation Xrotation
						JOINT LeftForeArm
						{
							OFFSET 5.450000 0.000000 0.000000
							CHANNELS 3 Zrotation Yrotation Xrotation
							JOINT LeftHand
							{
								OFFSET 3.450000 0.000000 0.000000
								CHANNELS 3 Zrotation Yrotation Xrotation
								JOINT LeftHandIndex1
								{
									OFFSET 0.750000 0.000000 0.000000
									CHANNELS 3 Zrotation Yrotation Xrotation
									End Site
									{
										OFFSET 0.000000 0.000000 0.000000
									}
								}
							}
						}
					}
				}
				JOINT RightShoulder
				{
					OFFSET 0.000000 0.000000 0.000000
					CHANNELS 3 Zrotation Yrotation Xrotation
					JOINT RightArm
					{
						OFFSET -2.700000 1.550000 -0.730000
						CHANNELS 3 Zrotation Yrotation Xrotation
						JOINT RightForeArm
						{
							OFFSET -5.450000 0.000000 0.000000
							CHANNELS 3 Zrotation Yrotation Xrotation
							JOINT RightHand
							{
								OFFSET -3.450000 0.000000 0.000000
								CHANNELS 3 Zrotation Yrotation Xrotation
								JOINT RightHandIndex1
								{
									OFFSET -0.750000 0.000000 0.000000
									CHANNELS 3 Zrotation Yrotation Xrotation
									End Site
									{
										OFFSET 0.000000 0.000000 0.000000
									}
								}
							}
						}
					}
				}
			}
		}
	}
}
MOTION
Frames: 7
Frame Time: 0.016667
2.103900 18.299290 -4.257300 3.044258 11.556056 3.693774 -15.309876 13.874301 3.221333 -4.137877 2.324800 7.635285 -4.677844 6.475310 10.444055 0.135666 5.803947 2.955329 -0.691380 -0.949320 -0.854120 18.379300 -9.023554 3.329771 10.208751 3.584274 -32.394826 5.783629 -3.870317 9.753606 0.175195 -1.604155 3.723613 -0.569850 1.154360 0.540180 -3.743476 -5.270246 -7.635109 19.997548 -14.080053 9.383414 -8.017120 -12.509510 -0.863409 3.134644 -6.901363 -11.097710 -20.467534 6.889603 39.906350 -0.847690 -1.975210 7.309000 -9.666537 -1.972901 2.799680 -55.946519 -5.883878 -0.832733 -8.696058 -7.246870 -0.800222 -4.295285 2.670424 0.514590 0.456910 -0.120180 0.265930 3.329616 2.476059 6.841197 56.971570 -12.256803 -11.305456 5.433775 -5.680502 0.470156 2.662552 -0.568355 -0.406720 0.418010 0.705900 0.305550 
2.117360 18.284740 -4.207600 3.242904 10.932831 4.013047 -15.315567 13.864016 3.252891 -4.365335 2.469693 7.731228 -4.952320 6.457799 9.712728 0.172584 5.741379 2.973732 -0.674200 -0.910370 -0.856910 18.378084 -8.988621 3.341244 10.274936 3.651669 -32.040561 5.764560 -3.693321 8.812100 0.167160 -1.549597 3.754864 -0.566100 1.134090 0.536560 -3.723041 -5.308725 -7.664786 20.072757 -13.815057 9.298961 -8.088507 -12.225095 -1.464369 3.310936 -7.153889 -11.184777 -21.210566 7.198892 39.992937 -0.803960 -1.864850 7.232220 -9.359344 -1.100159 2.684920 -56.224305 -5.234215 -1.084830 -9.580547 -7.383091 -0.737271 -4.264908 2.680088 0.508780 0.441460 -0.097580 0.281250 2.746460 1.969536 6.916371 56.972780 -13.028842 -11.671522 5.590857 -5.244925 0.399480 2.671736 -0.561560 -0.382080 0.409140 0.679960 0.321360 
2.180590 18.226150 -4.086970 2.855817 9.744986 4.560029 -15.308066 13.799053 3.223985 -4.325426 2.568664 7.840110 -4.806511 6.327962 8.581451 0.169877 5.692508 3.024482 -0.709530 -0.943220 -0.889020 18.412088 -8.912769 3.385711 11.110943 4.023843 -31.089317 5.634940 -3.420655 7.221807 0.187102 -1.494782 3.825316 -0.579800 1.177540 0.502870 -3.756629 -5.273317 -7.621071 21.751811 -13.564329 8.578247 -8.533549 -11.925240 -2.058742 3.532114 -7.840656 -11.110480 -22.399474 7.531925 38.731902 -0.835380 -1.758600 7.290190 -7.716485 0.988684 2.429310 -57.993601 -4.207650 -1.562729 -11.629225 -7.377942 -0.672173 -4.271744 2.620113 0.513430 0.454970 -0.117460 0.296490 0.664395 0.547066 6.886886 56.720738 -13.813668 -12.276656 6.031304 -4.587430 0.260099 2.652446 -0.499669 -0.418530 0.462100 0.686370 0.330090 
2.256150 18.136220 -3.943130 2.210119 7.791095 5.436824 -15.291049 13.716288 3.176024 -4.244167 2.543021 7.699979 -4.610268 6.212553 8.239303 0.208803 5.595778 3.066328 -0.696160 -0.914490 -0.894200 18.450767 -8.851814 3.502657 12.757547 4.709989 -30.719502 4.645482 -3.146477 6.705969 0.190341 -1.434991 3.862326 -0.580660 1.166850 0.496530 -3.801105 -5.132254 -7.605567 23.786390 -12.991459 8.137456 -8.795941 -11.178799 -3.063054 3.835006 -8.515664 -10.898483 -22.824451 7.481505 36.508407 -0.697960 -1.610210 6.847670 -6.144268 3.578392 2.064430 -60.096414 -2.585107 -2.577743 -13.349878 -7.719813 -0.642872 -4.239638 2.647965 0.493180 0.441860 -0.110580 0.319210 -1.515539 -1.138097 6.812229 55.430626 -14.460764 -12.402453 7.115006 -4.977567 0.069488 2.679034 -0.500046 -0.397490 0.443780 0.650480 0.351490 
2.342410 18.063020 -3.790060 1.475499 8.167969 5.843731 -15.323115 13.916300 3.161405 -2.754069 2.073604 7.589082 -4.850332 6.348709 8.639348 0.242286 5.643346 3.039426 -0.719770 -0.961270 -0.882380 18.395749 -8.740940 3.590144 13.612670 5.039980 -30.169730 3.867593 -3.086460 7.001350 0.172890 -1.366154 3.883299 -0.637550 1.114690 0.489740 -3.681531 -5.591437 -7.694093 25.976518 -13.682429 8.568554 -9.094966 -11.072366 -6.278819 4.976992 -8.866611 -11.536897 -23.976720 8.027287 37.246345 -1.071150 -1.244000 7.093960 -5.738065 5.514714 2.217220 -60.435896 1.475012 -4.619203 -16.893759 -9.585026 -0.548089 -4.166797 2.644966 0.544780 0.389830 -0.074130 0.295700 -3.939226 -2.202308 7.280600 54.706491 -16.241066 -13.017978 6.803987 -4.583884 0.133244 2.714609 -0.417724 -0.388600 0.418130 0.654800 0.335650 
2.440100 18.002810 -3.664410 0.730926 8.714502 6.300747 -15.352871 14.132938 3.111591 -1.613496 1.590604 6.822215 -4.516466 6.421769 10.250094 0.237651 5.642229 3.018348 -0.720930 -0.990050 -0.837810 18.332445 -8.668856 3.678120 13.898638 5.349869 -30.522109 4.161104 -3.315014 8.202790 0.138224 -1.315820 3.877691 -0.683070 1.030550 0.483270 -3.559403 -6.009348 -7.721863 28.897098 -14.600205 9.644184 -10.342264 -10.708838 -9.809743 6.319164 -9.503081 -11.785975 -25.213867 7.969336 36.759058 -2.116430 -0.897770 4.913060 -5.736634 7.979262 1.808544 -60.325490 5.012836 -6.411818 -19.347894 -11.508365 -0.401821 -4.085746 2.629634 0.618440 0.310510 -0.019370 0.263230 -6.376844 -3.438282 7.570776 55.026413 -17.695049 -13.886242 5.979148 -4.355986 0.270155 2.761980 -0.328403 -0.378520 0.395200 0.651440 0.306280 
2.520060 17.954080 -3.521480 0.546998 9.918579 6.745034 -15.390620 14.390097 3.050502 -0.408136 0.949794 5.596873 -4.389149 6.626246 12.918647 0.258370 5.735899 2.983072 -0.762360 -1.061270 -0.848360 18.251483 -8.630253 3.726433 13.636242 5.458377 -31.103432 4.028667 -3.536015 9.801528 0.143940 -1.317752 3.878729 -0.741720 1.015940 0.474050 -3.417758 -6.478961 -7.715544 30.629052 -15.269123 10.263618 -10.938194 -10.167537 -13.383151 7.228479 -9.915105 -11.962932 -26.059760 7.948313 36.358381 -2.039610 -1.238440 5.363990 -5.910611 10.291057 1.228275 -60.050772 7.823041 -7.220460 -20.908335 -11.195057 -0.352054 -4.071357 2.612246 0.636770 0.282920 -0.021100 0.242450 -7.658964 -4.733000 7.898192 54.681807 -20.455535 -14.915051 5.077754 -3.261738 0.294723 2.791923 -0.258508 -0.377900 0.377060 0.669480 0.300040 
